<mxfile host="app.diagrams.net" modified="2024-03-27T07:55:11.767Z" agent="Mozilla/5.0 (X11; Linux x86_64) AppleWebKit/537.36 (KHTML, like Gecko) Chrome/123.0.0.0 Safari/537.36" version="24.2.0" etag="y2eWNpeJ8sri57DRmIrH" type="github">
  <diagram name="Page-1" id="8Tex7iwvCS2SVi0nu0dy">
    <mxGraphModel>
      <root>
        <mxCell id="0" />
        <mxCell id="1" parent="0" />
      </root>
    </mxGraphModel>
  </diagram>
</mxfile>
